<mxfile host="app.diagrams.net" modified="2022-06-18T14:05:03.479Z" agent="5.0 (Windows NT 10.0; Win64; x64) AppleWebKit/537.36 (KHTML, like Gecko) Chrome/101.0.4951.67 Safari/537.36 OPR/87.0.4390.58" etag="EouQYnCEyutYDd1E76BK" version="20.0.1" type="github">
  <diagram id="8aCHfYfsMenAU9huHKBk" name="Page-1">
    <mxGraphModel dx="863" dy="478" grid="1" gridSize="10" guides="1" tooltips="1" connect="1" arrows="1" fold="1" page="1" pageScale="1" pageWidth="1654" pageHeight="1169" math="0" shadow="0">
      <root>
        <mxCell id="0" />
        <mxCell id="1" parent="0" />
        <mxCell id="Rd0p_HdcmdbAc5Na88ju-1" value="Moveable" style="swimlane;fontStyle=1;align=center;verticalAlign=top;childLayout=stackLayout;horizontal=1;startSize=26;horizontalStack=0;resizeParent=1;resizeParentMax=0;resizeLast=0;collapsible=1;marginBottom=0;" vertex="1" parent="1">
          <mxGeometry x="680" y="50" width="360" height="140" as="geometry" />
        </mxCell>
        <mxCell id="Rd0p_HdcmdbAc5Na88ju-2" value="position: Vector&#xa;velocity: Vector&#xa;speed: number" style="text;strokeColor=none;fillColor=none;align=left;verticalAlign=top;spacingLeft=4;spacingRight=4;overflow=hidden;rotatable=0;points=[[0,0.5],[1,0.5]];portConstraint=eastwest;" vertex="1" parent="Rd0p_HdcmdbAc5Na88ju-1">
          <mxGeometry y="26" width="360" height="54" as="geometry" />
        </mxCell>
        <mxCell id="Rd0p_HdcmdbAc5Na88ju-3" value="" style="line;strokeWidth=1;fillColor=none;align=left;verticalAlign=middle;spacingTop=-1;spacingLeft=3;spacingRight=3;rotatable=0;labelPosition=right;points=[];portConstraint=eastwest;" vertex="1" parent="Rd0p_HdcmdbAc5Na88ju-1">
          <mxGeometry y="80" width="360" height="8" as="geometry" />
        </mxCell>
        <mxCell id="Rd0p_HdcmdbAc5Na88ju-4" value="constructor(_position: Vector, _velocity: Vector, _speed: number)&#xa;draw(): void&#xa;move(_timeslice: number): void&#xa;" style="text;strokeColor=none;fillColor=none;align=left;verticalAlign=top;spacingLeft=4;spacingRight=4;overflow=hidden;rotatable=0;points=[[0,0.5],[1,0.5]];portConstraint=eastwest;" vertex="1" parent="Rd0p_HdcmdbAc5Na88ju-1">
          <mxGeometry y="88" width="360" height="52" as="geometry" />
        </mxCell>
        <mxCell id="Rd0p_HdcmdbAc5Na88ju-17" value="Canvas Rendering Context" style="swimlane;fontStyle=1;align=center;verticalAlign=top;childLayout=stackLayout;horizontal=1;startSize=26;horizontalStack=0;resizeParent=1;resizeParentMax=0;resizeLast=0;collapsible=1;marginBottom=0;" vertex="1" parent="1">
          <mxGeometry x="1010" y="720" width="160" height="34" as="geometry" />
        </mxCell>
        <mxCell id="Rd0p_HdcmdbAc5Na88ju-19" value="" style="line;strokeWidth=1;fillColor=none;align=left;verticalAlign=middle;spacingTop=-1;spacingLeft=3;spacingRight=3;rotatable=0;labelPosition=right;points=[];portConstraint=eastwest;" vertex="1" parent="Rd0p_HdcmdbAc5Na88ju-17">
          <mxGeometry y="26" width="160" height="8" as="geometry" />
        </mxCell>
        <mxCell id="Rd0p_HdcmdbAc5Na88ju-21" value="Vector" style="swimlane;fontStyle=1;align=center;verticalAlign=top;childLayout=stackLayout;horizontal=1;startSize=26;horizontalStack=0;resizeParent=1;resizeParentMax=0;resizeLast=0;collapsible=1;marginBottom=0;" vertex="1" parent="1">
          <mxGeometry x="1190" y="360" width="210" height="158" as="geometry" />
        </mxCell>
        <mxCell id="Rd0p_HdcmdbAc5Na88ju-22" value="x: number&#xa;y: number" style="text;strokeColor=none;fillColor=none;align=left;verticalAlign=top;spacingLeft=4;spacingRight=4;overflow=hidden;rotatable=0;points=[[0,0.5],[1,0.5]];portConstraint=eastwest;" vertex="1" parent="Rd0p_HdcmdbAc5Na88ju-21">
          <mxGeometry y="26" width="210" height="44" as="geometry" />
        </mxCell>
        <mxCell id="Rd0p_HdcmdbAc5Na88ju-23" value="" style="line;strokeWidth=1;fillColor=none;align=left;verticalAlign=middle;spacingTop=-1;spacingLeft=3;spacingRight=3;rotatable=0;labelPosition=right;points=[];portConstraint=eastwest;" vertex="1" parent="Rd0p_HdcmdbAc5Na88ju-21">
          <mxGeometry y="70" width="210" height="8" as="geometry" />
        </mxCell>
        <mxCell id="Rd0p_HdcmdbAc5Na88ju-24" value="constructor(_x: number, _y: number)&#xa;set(_x: number, y: number): void&#xa;scale(_factor: number)&#xa;addHor(_addend: Vector)&#xa;addAll(_addend: Vector)" style="text;strokeColor=none;fillColor=none;align=left;verticalAlign=top;spacingLeft=4;spacingRight=4;overflow=hidden;rotatable=0;points=[[0,0.5],[1,0.5]];portConstraint=eastwest;" vertex="1" parent="Rd0p_HdcmdbAc5Na88ju-21">
          <mxGeometry y="78" width="210" height="80" as="geometry" />
        </mxCell>
        <mxCell id="Rd0p_HdcmdbAc5Na88ju-25" value="Tree" style="swimlane;fontStyle=1;align=center;verticalAlign=top;childLayout=stackLayout;horizontal=1;startSize=26;horizontalStack=0;resizeParent=1;resizeParentMax=0;resizeLast=0;collapsible=1;marginBottom=0;" vertex="1" parent="1">
          <mxGeometry x="140" y="760" width="160" height="60" as="geometry" />
        </mxCell>
        <mxCell id="Rd0p_HdcmdbAc5Na88ju-27" value="" style="line;strokeWidth=1;fillColor=none;align=left;verticalAlign=middle;spacingTop=-1;spacingLeft=3;spacingRight=3;rotatable=0;labelPosition=right;points=[];portConstraint=eastwest;" vertex="1" parent="Rd0p_HdcmdbAc5Na88ju-25">
          <mxGeometry y="26" width="160" height="8" as="geometry" />
        </mxCell>
        <mxCell id="Rd0p_HdcmdbAc5Na88ju-28" value="draw(): void" style="text;strokeColor=none;fillColor=none;align=left;verticalAlign=top;spacingLeft=4;spacingRight=4;overflow=hidden;rotatable=0;points=[[0,0.5],[1,0.5]];portConstraint=eastwest;" vertex="1" parent="Rd0p_HdcmdbAc5Na88ju-25">
          <mxGeometry y="34" width="160" height="26" as="geometry" />
        </mxCell>
        <mxCell id="Rd0p_HdcmdbAc5Na88ju-29" value="Chiller" style="swimlane;fontStyle=1;align=center;verticalAlign=top;childLayout=stackLayout;horizontal=1;startSize=26;horizontalStack=0;resizeParent=1;resizeParentMax=0;resizeLast=0;collapsible=1;marginBottom=0;" vertex="1" parent="1">
          <mxGeometry x="640" y="880" width="160" height="60" as="geometry" />
        </mxCell>
        <mxCell id="Rd0p_HdcmdbAc5Na88ju-31" value="" style="line;strokeWidth=1;fillColor=none;align=left;verticalAlign=middle;spacingTop=-1;spacingLeft=3;spacingRight=3;rotatable=0;labelPosition=right;points=[];portConstraint=eastwest;" vertex="1" parent="Rd0p_HdcmdbAc5Na88ju-29">
          <mxGeometry y="26" width="160" height="8" as="geometry" />
        </mxCell>
        <mxCell id="Rd0p_HdcmdbAc5Na88ju-32" value="draw(): void" style="text;strokeColor=none;fillColor=none;align=left;verticalAlign=top;spacingLeft=4;spacingRight=4;overflow=hidden;rotatable=0;points=[[0,0.5],[1,0.5]];portConstraint=eastwest;" vertex="1" parent="Rd0p_HdcmdbAc5Na88ju-29">
          <mxGeometry y="34" width="160" height="26" as="geometry" />
        </mxCell>
        <mxCell id="Rd0p_HdcmdbAc5Na88ju-33" value="Surfer" style="swimlane;fontStyle=1;align=center;verticalAlign=top;childLayout=stackLayout;horizontal=1;startSize=26;horizontalStack=0;resizeParent=1;resizeParentMax=0;resizeLast=0;collapsible=1;marginBottom=0;" vertex="1" parent="1">
          <mxGeometry x="440" y="880" width="160" height="60" as="geometry" />
        </mxCell>
        <mxCell id="Rd0p_HdcmdbAc5Na88ju-35" value="" style="line;strokeWidth=1;fillColor=none;align=left;verticalAlign=middle;spacingTop=-1;spacingLeft=3;spacingRight=3;rotatable=0;labelPosition=right;points=[];portConstraint=eastwest;" vertex="1" parent="Rd0p_HdcmdbAc5Na88ju-33">
          <mxGeometry y="26" width="160" height="8" as="geometry" />
        </mxCell>
        <mxCell id="Rd0p_HdcmdbAc5Na88ju-36" value="draw(): void" style="text;strokeColor=none;fillColor=none;align=left;verticalAlign=top;spacingLeft=4;spacingRight=4;overflow=hidden;rotatable=0;points=[[0,0.5],[1,0.5]];portConstraint=eastwest;" vertex="1" parent="Rd0p_HdcmdbAc5Na88ju-33">
          <mxGeometry y="34" width="160" height="26" as="geometry" />
        </mxCell>
        <mxCell id="Rd0p_HdcmdbAc5Na88ju-37" value="Human" style="swimlane;fontStyle=1;align=center;verticalAlign=top;childLayout=stackLayout;horizontal=1;startSize=26;horizontalStack=0;resizeParent=1;resizeParentMax=0;resizeLast=0;collapsible=1;marginBottom=0;" vertex="1" parent="1">
          <mxGeometry x="540" y="760" width="160" height="60" as="geometry" />
        </mxCell>
        <mxCell id="Rd0p_HdcmdbAc5Na88ju-39" value="" style="line;strokeWidth=1;fillColor=none;align=left;verticalAlign=middle;spacingTop=-1;spacingLeft=3;spacingRight=3;rotatable=0;labelPosition=right;points=[];portConstraint=eastwest;" vertex="1" parent="Rd0p_HdcmdbAc5Na88ju-37">
          <mxGeometry y="26" width="160" height="8" as="geometry" />
        </mxCell>
        <mxCell id="Rd0p_HdcmdbAc5Na88ju-40" value="draw(): void" style="text;strokeColor=none;fillColor=none;align=left;verticalAlign=top;spacingLeft=4;spacingRight=4;overflow=hidden;rotatable=0;points=[[0,0.5],[1,0.5]];portConstraint=eastwest;" vertex="1" parent="Rd0p_HdcmdbAc5Na88ju-37">
          <mxGeometry y="34" width="160" height="26" as="geometry" />
        </mxCell>
        <mxCell id="Rd0p_HdcmdbAc5Na88ju-41" value="Immoveable" style="swimlane;fontStyle=1;align=center;verticalAlign=top;childLayout=stackLayout;horizontal=1;startSize=26;horizontalStack=0;resizeParent=1;resizeParentMax=0;resizeLast=0;collapsible=1;marginBottom=0;" vertex="1" parent="1">
          <mxGeometry x="440" y="634" width="170" height="100" as="geometry" />
        </mxCell>
        <mxCell id="Rd0p_HdcmdbAc5Na88ju-42" value="position: Vector" style="text;strokeColor=none;fillColor=none;align=left;verticalAlign=top;spacingLeft=4;spacingRight=4;overflow=hidden;rotatable=0;points=[[0,0.5],[1,0.5]];portConstraint=eastwest;" vertex="1" parent="Rd0p_HdcmdbAc5Na88ju-41">
          <mxGeometry y="26" width="170" height="26" as="geometry" />
        </mxCell>
        <mxCell id="Rd0p_HdcmdbAc5Na88ju-43" value="" style="line;strokeWidth=1;fillColor=none;align=left;verticalAlign=middle;spacingTop=-1;spacingLeft=3;spacingRight=3;rotatable=0;labelPosition=right;points=[];portConstraint=eastwest;" vertex="1" parent="Rd0p_HdcmdbAc5Na88ju-41">
          <mxGeometry y="52" width="170" height="8" as="geometry" />
        </mxCell>
        <mxCell id="Rd0p_HdcmdbAc5Na88ju-44" value="constructor(_position: Vector)&#xa;draw(): void" style="text;strokeColor=none;fillColor=none;align=left;verticalAlign=top;spacingLeft=4;spacingRight=4;overflow=hidden;rotatable=0;points=[[0,0.5],[1,0.5]];portConstraint=eastwest;" vertex="1" parent="Rd0p_HdcmdbAc5Na88ju-41">
          <mxGeometry y="60" width="170" height="40" as="geometry" />
        </mxCell>
        <mxCell id="Rd0p_HdcmdbAc5Na88ju-45" value="Ship" style="swimlane;fontStyle=1;align=center;verticalAlign=top;childLayout=stackLayout;horizontal=1;startSize=26;horizontalStack=0;resizeParent=1;resizeParentMax=0;resizeLast=0;collapsible=1;marginBottom=0;" vertex="1" parent="1">
          <mxGeometry x="340" y="760" width="160" height="60" as="geometry" />
        </mxCell>
        <mxCell id="Rd0p_HdcmdbAc5Na88ju-47" value="" style="line;strokeWidth=1;fillColor=none;align=left;verticalAlign=middle;spacingTop=-1;spacingLeft=3;spacingRight=3;rotatable=0;labelPosition=right;points=[];portConstraint=eastwest;" vertex="1" parent="Rd0p_HdcmdbAc5Na88ju-45">
          <mxGeometry y="26" width="160" height="8" as="geometry" />
        </mxCell>
        <mxCell id="Rd0p_HdcmdbAc5Na88ju-48" value="draw(): void" style="text;strokeColor=none;fillColor=none;align=left;verticalAlign=top;spacingLeft=4;spacingRight=4;overflow=hidden;rotatable=0;points=[[0,0.5],[1,0.5]];portConstraint=eastwest;" vertex="1" parent="Rd0p_HdcmdbAc5Na88ju-45">
          <mxGeometry y="34" width="160" height="26" as="geometry" />
        </mxCell>
        <mxCell id="Rd0p_HdcmdbAc5Na88ju-49" value="StaticBird" style="swimlane;fontStyle=1;align=center;verticalAlign=top;childLayout=stackLayout;horizontal=1;startSize=26;horizontalStack=0;resizeParent=1;resizeParentMax=0;resizeLast=0;collapsible=1;marginBottom=0;" vertex="1" parent="1">
          <mxGeometry x="740" y="760" width="160" height="60" as="geometry" />
        </mxCell>
        <mxCell id="Rd0p_HdcmdbAc5Na88ju-51" value="" style="line;strokeWidth=1;fillColor=none;align=left;verticalAlign=middle;spacingTop=-1;spacingLeft=3;spacingRight=3;rotatable=0;labelPosition=right;points=[];portConstraint=eastwest;" vertex="1" parent="Rd0p_HdcmdbAc5Na88ju-49">
          <mxGeometry y="26" width="160" height="8" as="geometry" />
        </mxCell>
        <mxCell id="Rd0p_HdcmdbAc5Na88ju-52" value="draw(): void" style="text;strokeColor=none;fillColor=none;align=left;verticalAlign=top;spacingLeft=4;spacingRight=4;overflow=hidden;rotatable=0;points=[[0,0.5],[1,0.5]];portConstraint=eastwest;" vertex="1" parent="Rd0p_HdcmdbAc5Na88ju-49">
          <mxGeometry y="34" width="160" height="26" as="geometry" />
        </mxCell>
        <mxCell id="Rd0p_HdcmdbAc5Na88ju-57" value="Cloud" style="swimlane;fontStyle=1;align=center;verticalAlign=top;childLayout=stackLayout;horizontal=1;startSize=26;horizontalStack=0;resizeParent=1;resizeParentMax=0;resizeLast=0;collapsible=1;marginBottom=0;" vertex="1" parent="1">
          <mxGeometry x="680" y="240" width="160" height="80" as="geometry" />
        </mxCell>
        <mxCell id="Rd0p_HdcmdbAc5Na88ju-59" value="" style="line;strokeWidth=1;fillColor=none;align=left;verticalAlign=middle;spacingTop=-1;spacingLeft=3;spacingRight=3;rotatable=0;labelPosition=right;points=[];portConstraint=eastwest;" vertex="1" parent="Rd0p_HdcmdbAc5Na88ju-57">
          <mxGeometry y="26" width="160" height="24" as="geometry" />
        </mxCell>
        <mxCell id="Rd0p_HdcmdbAc5Na88ju-60" value="draw(): void" style="text;strokeColor=none;fillColor=none;align=left;verticalAlign=top;spacingLeft=4;spacingRight=4;overflow=hidden;rotatable=0;points=[[0,0.5],[1,0.5]];portConstraint=eastwest;" vertex="1" parent="Rd0p_HdcmdbAc5Na88ju-57">
          <mxGeometry y="50" width="160" height="30" as="geometry" />
        </mxCell>
        <mxCell id="Rd0p_HdcmdbAc5Na88ju-61" value="Heritage Beach: Class Diagram" style="text;html=1;align=center;verticalAlign=middle;resizable=0;points=[];autosize=1;strokeColor=none;fillColor=none;" vertex="1" parent="1">
          <mxGeometry x="10" y="20" width="180" height="20" as="geometry" />
        </mxCell>
        <mxCell id="Rd0p_HdcmdbAc5Na88ju-63" value="Dynamic Bird" style="swimlane;fontStyle=1;align=center;verticalAlign=top;childLayout=stackLayout;horizontal=1;startSize=26;horizontalStack=0;resizeParent=1;resizeParentMax=0;resizeLast=0;collapsible=1;marginBottom=0;" vertex="1" parent="1">
          <mxGeometry x="880" y="237" width="360" height="100" as="geometry" />
        </mxCell>
        <mxCell id="Rd0p_HdcmdbAc5Na88ju-64" value="wingspan: number" style="text;strokeColor=none;fillColor=none;align=left;verticalAlign=top;spacingLeft=4;spacingRight=4;overflow=hidden;rotatable=0;points=[[0,0.5],[1,0.5]];portConstraint=eastwest;" vertex="1" parent="Rd0p_HdcmdbAc5Na88ju-63">
          <mxGeometry y="26" width="360" height="26" as="geometry" />
        </mxCell>
        <mxCell id="Rd0p_HdcmdbAc5Na88ju-65" value="" style="line;strokeWidth=1;fillColor=none;align=left;verticalAlign=middle;spacingTop=-1;spacingLeft=3;spacingRight=3;rotatable=0;labelPosition=right;points=[];portConstraint=eastwest;" vertex="1" parent="Rd0p_HdcmdbAc5Na88ju-63">
          <mxGeometry y="52" width="360" height="8" as="geometry" />
        </mxCell>
        <mxCell id="Rd0p_HdcmdbAc5Na88ju-66" value="constructor(_position: Vector, _velocity: Vector, _speed: number)&#xa;draw(): void" style="text;strokeColor=none;fillColor=none;align=left;verticalAlign=top;spacingLeft=4;spacingRight=4;overflow=hidden;rotatable=0;points=[[0,0.5],[1,0.5]];portConstraint=eastwest;" vertex="1" parent="Rd0p_HdcmdbAc5Na88ju-63">
          <mxGeometry y="60" width="360" height="40" as="geometry" />
        </mxCell>
        <mxCell id="Rd0p_HdcmdbAc5Na88ju-67" value="constructor" style="rounded=1;whiteSpace=wrap;html=1;align=left;verticalAlign=top;arcSize=5;" vertex="1" parent="1">
          <mxGeometry x="40" y="1240" width="240" height="260" as="geometry" />
        </mxCell>
        <mxCell id="Rd0p_HdcmdbAc5Na88ju-73" style="edgeStyle=orthogonalEdgeStyle;rounded=0;orthogonalLoop=1;jettySize=auto;html=1;exitX=0.5;exitY=1;exitDx=0;exitDy=0;entryX=0.5;entryY=0;entryDx=0;entryDy=0;" edge="1" parent="1" source="Rd0p_HdcmdbAc5Na88ju-68" target="Rd0p_HdcmdbAc5Na88ju-69">
          <mxGeometry relative="1" as="geometry">
            <Array as="points">
              <mxPoint x="200" y="1280" />
              <mxPoint x="160" y="1280" />
            </Array>
          </mxGeometry>
        </mxCell>
        <mxCell id="Rd0p_HdcmdbAc5Na88ju-68" value="_position: Vector _velocity: Vector&lt;br&gt;_speed: number" style="rounded=0;whiteSpace=wrap;html=1;" vertex="1" parent="1">
          <mxGeometry x="140" y="1210" width="120" height="60" as="geometry" />
        </mxCell>
        <mxCell id="Rd0p_HdcmdbAc5Na88ju-75" style="edgeStyle=orthogonalEdgeStyle;rounded=0;orthogonalLoop=1;jettySize=auto;html=1;exitX=0.5;exitY=1;exitDx=0;exitDy=0;entryX=0.499;entryY=0;entryDx=0;entryDy=0;entryPerimeter=0;" edge="1" parent="1" source="Rd0p_HdcmdbAc5Na88ju-69" target="Rd0p_HdcmdbAc5Na88ju-71">
          <mxGeometry relative="1" as="geometry" />
        </mxCell>
        <mxCell id="Rd0p_HdcmdbAc5Na88ju-69" value="assign _position, _velocity and _speed to the object" style="rounded=1;whiteSpace=wrap;html=1;" vertex="1" parent="1">
          <mxGeometry x="100" y="1290" width="120" height="60" as="geometry" />
        </mxCell>
        <mxCell id="Rd0p_HdcmdbAc5Na88ju-76" style="edgeStyle=orthogonalEdgeStyle;rounded=0;orthogonalLoop=1;jettySize=auto;html=1;entryX=0.5;entryY=0;entryDx=0;entryDy=0;" edge="1" parent="1" source="Rd0p_HdcmdbAc5Na88ju-71" target="Rd0p_HdcmdbAc5Na88ju-72">
          <mxGeometry relative="1" as="geometry" />
        </mxCell>
        <mxCell id="Rd0p_HdcmdbAc5Na88ju-71" value="draw()" style="shape=mxgraph.uml25.behaviorAction;html=1;rounded=1;absoluteArcSize=1;arcSize=10;align=left;spacingLeft=5;" vertex="1" parent="1">
          <mxGeometry x="100" y="1370" width="120" height="50" as="geometry" />
        </mxCell>
        <mxCell id="Rd0p_HdcmdbAc5Na88ju-72" value="" style="ellipse;html=1;shape=endState;fillColor=#000000;strokeColor=#000000;" vertex="1" parent="1">
          <mxGeometry x="145" y="1440" width="30" height="30" as="geometry" />
        </mxCell>
      </root>
    </mxGraphModel>
  </diagram>
</mxfile>
